<svg width="1024" height="1024" viewBox="0 0 1024 1024" xmlns="http://www.w3.org/2000/svg" preserveAspectRatio="xMidYMid meet"><rect x="0" y="0" width="1024" height="1024" fill="#e5e7ea"></rect><svg x="331" y="459" width="515" height="107" xmlns="http://www.w3.org/2000/svg" preserveAspectRatio="none"><svg version="1.1" xmlns="http://www.w3.org/2000/svg" style="display: block;" width="515" height="107" viewBox="270.35 61.06 1511.62 314.07" preserveAspectRatio="none"><g id="svg-group-96dd9d4c-2e05-4a7d-a9de-61ef64409dda">
<path transform="translate(0,0)" fill="rgb(0,0,0)" d="M 826.101 62.1386 C 839.935 61.0586 847.262 63.651 854.616 75.7165 C 855.339 86.5154 854.918 101.08 854.923 112.112 L 855.251 174.606 C 858.005 172.757 860.79 170.949 863.552 169.111 C 906.73 140.38 968.152 149.294 1000.55 190.458 C 1018.15 212.652 1026.09 240.984 1022.6 269.093 C 1019.13 298.07 1006.58 324.049 983.42 342.236 C 968.169 356.765 935.916 365.444 915.236 364.354 C 894.442 363.258 871.614 355.12 857.34 339.52 C 853.98 348.556 850.47 360.29 840.197 362.677 C 820.608 367.227 812.071 361.07 811.844 342.227 C 810.829 258.188 811.403 174.355 811.192 90.3349 C 811.151 74.0537 811.129 69.6739 826.101 62.1386 z M 924.48 321.531 C 959.026 318.005 984.304 287.338 981.17 252.754 C 978.036 218.169 947.658 192.545 913.04 195.286 C 890.294 197.087 870.272 210.974 860.615 231.646 C 850.958 252.319 853.157 276.587 866.372 295.187 C 879.588 313.787 901.781 323.848 924.48 321.531 z"/>
<path transform="translate(0,0)" fill="rgb(0,0,0)" d="M 1352.08 152.476 C 1410.71 149.699 1460.45 195.074 1463.06 253.716 C 1465.66 312.359 1420.15 361.967 1361.5 364.404 C 1303.09 366.83 1253.72 321.539 1251.13 263.136 C 1248.53 204.733 1293.68 155.241 1352.08 152.476 z M 1369.46 320.559 C 1403.68 313.515 1425.74 280.097 1418.76 245.865 C 1411.79 211.633 1378.41 189.512 1344.17 196.421 C 1309.82 203.35 1287.63 236.837 1294.62 271.165 C 1301.62 305.492 1335.15 327.622 1369.46 320.559 z"/>
<path transform="translate(0,0)" fill="rgb(0,0,0)" d="M 375.241 288.575 C 381.539 277.596 385.251 263.364 389.223 251.21 C 397.731 224.523 405.286 199.696 413.907 172.849 C 419.884 154.238 435.313 146.831 452.942 158.305 C 453.986 158.984 456.695 162.16 457.141 163.294 C 472.719 202.842 483.653 246.441 500.5 285.516 C 513.237 262.722 523.346 205.796 534.033 179.094 C 540.976 161.748 540.966 149.52 565.963 154.505 C 593.406 159.978 570.486 209.161 564.904 227.485 C 553.071 264.591 542.964 301.182 530.252 339.021 C 522.616 361.747 501.579 373.961 480.928 353.045 C 477.8 349.877 471.096 328.516 469.169 322.955 L 450.248 268.874 C 446.792 259.013 441.827 243.631 437.315 234.6 C 425.025 266.518 415.118 302.537 402.902 334.834 C 399.045 345.031 396.29 355.457 385.505 360.459 C 378.722 363.532 371.004 363.818 364.012 361.257 C 353.407 357.318 349.931 348.793 346.875 338.755 C 332.347 291.029 316.44 243.797 301.121 196.326 C 298.778 189.067 296.751 180.487 293.628 173.643 L 297.909 161.815 C 303.377 157.06 306.292 154.844 313.489 153.34 C 331.237 153.315 335.615 159.716 340.188 175.712 C 351.02 213.599 363.671 250.938 375.241 288.575 z"/>
<path transform="translate(0,0)" fill="rgb(0,0,0)" d="M 1547.66 287.84 C 1549.26 284.824 1550.31 281.868 1551.45 278.664 C 1563.84 243.798 1574.65 208.435 1585.91 173.207 C 1588.19 166.071 1592.34 158.335 1599.54 155.314 C 1606.3 152.476 1612.64 151.819 1619.6 154.454 C 1623.89 156.038 1627.46 159.118 1629.66 163.126 C 1632.41 168.018 1638.44 188.337 1640.79 194.694 C 1651.07 222.514 1661.25 260.767 1673.26 286.928 C 1678.65 277.51 1684.26 256.838 1687.59 245.822 C 1694.12 224.311 1700.52 202.761 1706.79 181.171 C 1711.92 163.717 1724.59 138.138 1751.46 162.348 C 1758.69 168.852 1741.34 214.493 1737.18 227.476 C 1725.71 267.623 1711.79 308.007 1698.58 347.496 C 1691.57 368.437 1658.31 366.16 1652.19 351.226 C 1636.73 313.517 1625.05 272.559 1610.64 234.27 C 1606.87 240.686 1604.57 248.731 1601.84 255.848 C 1589.44 288.113 1581.32 322.573 1566.86 353.907 C 1564.47 357.929 1556.11 362.103 1551.55 362.609 C 1535.22 364.323 1525.88 358.514 1520.52 342.886 C 1502.14 289.328 1486.29 234.846 1468.03 181.218 C 1463.52 167.986 1472.02 156.193 1485.54 153.36 C 1511.44 153.492 1510.71 170.8 1517.2 191.329 C 1523.79 211.783 1530.21 232.292 1536.46 252.854 C 1539.49 262.75 1543.79 279.156 1547.66 287.84 z"/>
<path transform="translate(0,0)" fill="rgb(0,0,0)" d="M 682.57 152.347 C 683.478 152.292 684.388 152.248 685.298 152.216 C 713.196 151.229 737.512 162.012 758.67 179.876 C 777.605 195.862 800.885 243.486 780.323 265.202 C 777.045 268.665 772.753 270.997 768.064 271.863 C 759.326 273.441 735.457 272.55 724.946 272.63 C 693.083 272.873 660.787 271.863 628.938 272.63 C 632.818 291.932 643.004 305.403 660.212 315.24 C 677.803 325.295 706.767 324.564 723.811 313.767 C 735.745 306.208 740.285 296.665 755.354 292.19 C 768.134 295.256 774.133 302.628 776.662 314.967 C 774.871 319.428 771.884 325.287 768.809 328.964 C 731.989 373.092 666.214 375.124 621.962 341.18 C 569.58 300.998 573.731 207.645 628.089 171.151 C 645.191 159.67 662.407 154.789 682.57 152.347 z M 631.611 234.646 C 652.118 233.71 672.648 233.37 693.174 233.625 C 707.567 233.186 729.691 233.849 743.032 232.768 C 734.095 206.975 707.435 188.915 680.066 195.419 C 657.913 197.219 637.531 213.013 631.611 234.646 z"/>
<path transform="translate(0,0)" fill="rgb(0,0,0)" d="M 1117.77 62.2824 C 1120.4 62.1341 1123.04 62.0268 1125.68 61.9604 C 1134.35 61.7674 1143.54 63.7494 1149.94 69.9754 C 1154.06 73.9423 1156.38 79.4166 1156.37 85.1337 C 1156.38 90.7726 1154.11 96.1756 1150.06 100.107 C 1139.92 110.137 1126.53 107.743 1113.16 107.679 C 1097.12 118.321 1101.71 139.167 1102.01 156.709 C 1113.65 156.317 1133.05 155.406 1144.23 157.233 C 1157.01 165.315 1159.83 180.9 1149.73 192.564 C 1140.94 202.716 1115.85 198.648 1101.93 199.021 C 1101.99 247.513 1102.84 298.447 1101.82 346.743 C 1096.72 365.395 1077.3 368.528 1063.87 356.943 C 1057.61 351.542 1059.72 328.127 1059.44 319.572 C 1058.35 279.382 1058.13 239.173 1058.79 198.974 C 1043.91 198.989 1024.18 199.812 1024.26 177.302 C 1024.34 155.136 1043.41 156.077 1059.8 156.229 C 1059.99 105.69 1062.46 74.3555 1117.77 62.2824 z"/>
<path transform="translate(0,0)" fill="rgb(0,0,0)" d="M 1198.23 62.2056 C 1202.82 61.8955 1207.15 61.6421 1211.64 62.9637 C 1217.2 64.6012 1221.65 67.702 1224.3 72.9751 C 1227.12 78.5921 1227.74 339.391 1224.37 349.084 C 1222.29 355.038 1218.97 358.446 1213.37 361.148 C 1199.21 365.498 1191.37 362.199 1183.35 350.083 C 1182.13 321.289 1183.13 284.505 1183.13 254.873 L 1183.2 74.9811 C 1188.77 67.4802 1189.9 66.2938 1198.23 62.2056 z"/>
</g></svg></svg><svg x="176" y="421" width="133" height="181" xmlns="http://www.w3.org/2000/svg" preserveAspectRatio="none"><svg version="1.1" xmlns="http://www.w3.org/2000/svg" style="display: block;" width="133" height="181" viewBox="69.71 92.46 1076.98 1465.66" preserveAspectRatio="none"><g id="svg-group-f0b956d0-d5bc-4c4c-9584-761276c3b2f9">
<path transform="translate(0,0)" fill="rgb(0,0,0)" d="M 1011.03 404.475 C 1044.21 404.329 1073.66 411.96 1098.4 436.147 C 1146.69 483.375 1138.61 568.233 1084.57 607.482 C 1071.04 617.31 1060.42 619.748 1047.98 632.389 C 1047.86 653.125 1048.39 672.655 1049.14 693.358 C 1049.41 704.315 1047.89 715.831 1048.39 726.702 C 1052.46 814.321 1048.93 902.346 1050.63 990.072 C 1050.67 992.397 1048.63 1011 1049.11 1011.6 C 1057.9 1022.59 1075.48 1027.05 1086.45 1036.26 C 1096.69 1044.16 1103.34 1050.56 1111.13 1061.14 C 1126.17 1081.21 1132.44 1106.52 1128.5 1131.29 C 1117.56 1200.52 1059.77 1241.69 992.295 1230.96 C 983.849 1229.61 976.138 1225.89 967.595 1224.49 C 959.524 1227.29 934.589 1257.38 926.609 1265.24 L 826.013 1362.87 C 827.89 1364.83 831.327 1368.41 832.561 1370.72 C 860.191 1422.51 842.067 1493.06 791.773 1523.61 C 737.916 1556.33 660.14 1539.15 628.558 1483.61 C 613.379 1456.92 609.491 1419 619.293 1389.9 C 622.378 1380.45 627.079 1371.74 629.381 1362.34 C 614.953 1350.22 586.126 1319.95 572.064 1305.65 C 547.544 1280.71 516.983 1252.13 493.81 1226.64 C 479.84 1229.05 466.35 1232.4 452.114 1233.53 C 397.878 1237.81 343.413 1187.51 340.493 1133.27 C 338.631 1096.65 341.54 1089.11 357.34 1058.55 C 337.31 1040.21 316.094 1014.56 296.754 994.318 C 276.774 973.405 248.763 948.387 230.455 927.079 C 211.549 928.638 198.626 937.774 177.391 935.178 C 119.961 928.157 69.7142 885.291 73.0905 823.819 C 74.9143 790.611 88.0812 756.499 113.331 734.102 C 153.16 702.903 188.063 708.083 231.269 711.929 C 236.061 712.355 320.622 624.761 332.035 614.471 C 337.898 609.184 357.855 592.481 365.108 586.338 C 362.016 578.824 355.039 570.399 352.548 563.72 C 335.019 516.71 348.381 454.421 391.356 425.424 C 484.692 362.621 602.277 456.058 556.196 560.785 C 553.106 567.808 546.346 575.107 553.379 580.855 C 577.381 600.473 598.792 628.762 621.757 648.568 C 647.969 671.174 663.968 686.635 686.211 713.032 C 712.857 705.594 751.646 700.965 777.584 713.112 C 789.327 698.368 810.201 681.809 824.536 669.203 C 841.058 653.929 855.75 637.905 872.186 622.416 C 876.952 617.924 923.284 579.892 920.876 574.182 C 915.769 560.46 909.013 547.609 908.383 532.441 C 908.067 524.838 908.243 516.939 908.105 509.366 C 907.033 450.668 952.984 407.589 1011.03 404.475 z M 628.701 984.214 C 610.408 1003.49 591.614 1022.28 572.337 1040.57 C 565.694 1049.76 557.974 1050.12 549.128 1058.86 C 564.798 1080.83 566.656 1109.39 562.97 1135.47 C 560.124 1155.61 549.809 1168.31 543.699 1185.38 C 554.526 1198.84 569.107 1210.18 581.003 1222.42 C 600.268 1242.24 620.042 1261.66 640.054 1280.74 C 649.565 1289.81 666.21 1306.32 676.567 1313.69 C 719.175 1305.36 736.154 1303.97 777.478 1314.4 C 799.161 1303.39 810.323 1280.63 825.708 1269.16 C 827.948 1267.46 830.648 1264.51 832.671 1262.38 C 850.513 1243.58 869.487 1225.76 887.528 1207.2 C 896.157 1195.08 911.22 1189.36 918.848 1180.09 C 910.519 1154.83 904.089 1142.03 905.771 1114.78 C 909.254 1058.34 934.64 1031.62 987.652 1014.32 C 987.981 1003.91 986.723 973.314 985.82 964.314 C 982.034 926.586 989.401 633.526 983.942 625.878 C 965.915 620.995 956.226 634.891 945.262 647.195 C 927.506 667.118 911.92 682.074 891.094 698.484 C 877.25 709.393 863.219 729.154 849.212 740.719 C 843.789 745.874 835.316 749.856 829.188 755.212 C 827.924 760.099 834 768.052 836.27 773.16 C 869.312 847.509 816.55 931.454 734.878 931.568 C 721.395 931.586 698.882 928.022 686.695 922.807 C 673.466 935.306 661.147 951.406 647.331 963.776 C 641.101 969.354 635.512 979.031 628.701 984.214 z M 722.41 1366.26 C 690.96 1370.92 669.269 1400.23 674.001 1431.67 C 678.733 1463.11 708.09 1484.74 739.519 1479.94 C 770.85 1475.15 792.394 1445.91 787.677 1414.56 C 782.959 1383.22 753.762 1361.61 722.41 1366.26 z M 298.192 746.56 C 293.669 752.501 280.035 756.936 282.617 762.352 C 304.376 807.991 304.923 838.128 278.766 885.415 C 289.197 893.181 298.416 904.255 308.206 912.789 C 319.259 922.424 329.186 929.364 339.65 939.877 C 358.772 959.089 391.658 999.841 412.054 1014.04 C 447.688 1004.72 458.817 1003.43 494.999 1013.94 C 508.762 1005.88 520.842 990.857 532.36 979.611 C 541.034 971.141 554.304 962.562 562.185 954.436 C 576.897 939.268 589.986 924.492 605.246 909.68 C 613.108 902.05 630.808 886.906 636.403 879.768 C 636.652 873.491 632.701 869.38 628.583 865.107 C 624.129 845.463 620.069 834.562 621.718 813.905 C 623.589 790.483 630.69 777.635 639.565 756.47 C 635.769 754.951 631.901 753.334 628.036 752.035 C 620.538 746.667 601.274 727.004 594.131 719.663 C 578.752 703.86 559.672 686.059 545.456 669.442 C 544.176 668.496 545.22 669.366 544.189 668.221 C 530.203 652.686 517.751 637.991 499.474 627.798 C 465.474 640.22 448.165 638.097 412.53 633.241 C 396.826 641.508 392.351 655.884 379.468 665.483 C 357.758 688.64 321.62 725.647 298.192 746.56 z"/>
<path transform="translate(0,0)" fill="rgb(169,169,171)" d="M 545.456 669.442 C 550.739 669.808 629.17 747.595 629.164 750.942 L 628.036 752.035 C 620.538 746.667 601.274 727.004 594.131 719.663 C 578.752 703.86 559.672 686.059 545.456 669.442 z"/>
<path transform="translate(0,0)" fill="rgb(169,169,171)" d="M 298.192 746.56 L 297.718 745.356 C 299.117 739.504 368.268 671.291 378.016 664.935 L 379.468 665.483 C 357.758 688.64 321.62 725.647 298.192 746.56 z"/>
<path transform="translate(0,0)" fill="rgb(169,169,171)" d="M 887.528 1207.2 L 890.006 1207.8 C 887.494 1214.36 829.886 1271.07 824.676 1272.76 C 824.408 1271.18 824.954 1270.63 825.708 1269.16 C 827.948 1267.46 830.648 1264.51 832.671 1262.38 C 850.513 1243.58 869.487 1225.76 887.528 1207.2 z"/>
<path transform="translate(0,0)" fill="rgb(169,169,171)" d="M 572.337 1040.57 L 571.716 1039.07 C 575.484 1030.28 617.146 990.717 626.455 983.677 L 628.701 984.214 C 610.408 1003.49 591.614 1022.28 572.337 1040.57 z"/>
<path transform="translate(0,0)" fill="rgb(0,0,0)" d="M 731.796 94.2962 C 795.401 94.248 847.044 145.692 847.241 209.297 C 847.438 272.902 796.115 324.665 732.511 325.011 C 668.696 325.358 616.724 273.828 616.526 210.012 C 616.328 146.196 667.98 94.3446 731.796 94.2962 z M 731.507 266.707 C 763.29 266.353 788.685 240.148 788.043 208.37 C 787.401 176.591 760.969 151.434 729.197 152.363 C 697.829 153.28 673.061 179.305 673.695 210.679 C 674.328 242.054 700.127 267.057 731.507 266.707 z"/>
</g></svg></svg></svg>